<?xml version="1.0" encoding="utf-8"?>
<!-- Generator: Adobe Illustrator 16.0.0, SVG Export Plug-In . SVG Version: 6.00 Build 0)  -->
<!DOCTYPE svg PUBLIC "-//W3C//DTD SVG 1.1//EN" "http://www.w3.org/Graphics/SVG/1.1/DTD/svg11.dtd">
<svg version="1.1" id="Calque_1" xmlns="http://www.w3.org/2000/svg" xmlns:xlink="http://www.w3.org/1999/xlink" x="0px" y="0px"
	 width="770.824px" height="216.377px" viewBox="0 0 770.824 216.377" enable-background="new 0 0 770.824 216.377"
	 xml:space="preserve">
<g>
	<path fill="#EF4D3A" d="M387.898,86.232c-0.259-0.489-0.817-0.232-1.431-0.232h-33.175l34.609-83.746
		c0.298-0.718,0.032-1.884-0.628-2.292c-0.658-0.406-1.521-0.445-2.029,0.142L279.38,122.4c-0.404,0.468-0.499,1.086-0.241,1.65
		c0.256,0.562,0.818,0.904,1.437,0.904l41.306,0.016l-42.731,89.147c-0.344,0.722-0.098,1.582,0.576,2.012
		c0.263,0.169,0.558,0.249,0.85,0.249c0.459,0,0.913-0.201,1.223-0.578L387.689,87.574
		C388.078,87.101,388.185,86.772,387.898,86.232z"/>
</g>
<path fill="#EF4D3A" d="M69.089,83.438c25.907,0,46.5,21.259,46.5,46.502c0,25.687-20.814,47.608-46.5,47.608H7.751v-32.551h57.794
	c8.636,0,15.723-6.2,15.723-14.837c0-8.635-7.086-14.835-15.723-14.835h-19.93C20.151,115.326,0,93.625,0,68.381
	c0-25.021,20.151-45.836,45.615-45.836h51.594v31.664H48.052c-8.193,0-14.615,6.422-14.615,14.615s6.422,14.614,14.615,14.614
	H69.089z"/>
<path fill="#EF4D3A" d="M168.736,54.874h-35.208V22.545h103.63v32.329H201.95v122.675h-33.214V54.874z"/>
<g>
	<path fill="#EF4D3A" d="M376.708,40.743l-13.503,31.96c2.715,2.599,4.821,5.297,6.89,8.297h26.666c0.732,0,1.399,0.056,1.708,0.64
		c0.343,0.646,0.216,1.219-0.249,1.786l-20.292,23.797c0.005,0.277,0.021,0.572,0.021,0.853c0,24.96-17.933,45.634-40.812,47.437
		l-24.146,30.06c6.989,2.019,12.8,2.68,20.45,2.68c44.066,0,79.274-35.872,79.274-80.158
		C412.715,79.831,398.418,55.068,376.708,40.743z"/>
	<path fill="#EF4D3A" d="M293.454,129.312l-23.174-0.064c-0.737,0-1.41-0.414-1.716-1.086c-0.308-0.674-0.195-1.427,0.289-1.984
		l20.166-23.586c2.299-21.164,17.656-38.403,37.268-41.74l26.834-30.61c-6.478-1.713-12.876-2.528-19.9-2.528
		c-44.066,0-79.273,35.873-79.273,80.382c0,29.527,15.761,55.297,39.318,69.205l14.099-30.625
		C301.014,141.91,296.798,136.844,293.454,129.312z"/>
</g>
<path fill="#EF4D3A" d="M550.714,120.641c17.716,13.285,21.48,28.785,21.48,44.95v11.958H538.98v-11.958
	c0-16.386-11.072-29.893-27.901-29.893h-20.372v41.851h-33.215V22.545h57.352c31.664,0,57.352,25.686,57.352,57.129
	C572.195,100.49,562.007,111.782,550.714,120.641z M511.743,53.103h-21.036v52.922h21.036c14.614,0,26.572-11.956,26.572-26.351
	C538.315,65.061,526.357,53.103,511.743,53.103z"/>
<path fill="#EF4D3A" d="M689.114,112.004l50.267-92.338l31.443,157.883h-33.879l-11.516-66.209l-36.315,69.088l-36.315-69.088
	l-11.514,66.209h-33.879l31.443-157.883L689.114,112.004z"/>
</svg>
